<svg id="Capa_1" data-name="Capa 1" xmlns="http://www.w3.org/2000/svg" viewBox="0 0 321 170"><defs><clipPath id="clip-path"><path style="clip-rule:evenodd;fill:none" d="M255.6 170H73.55l.54-128.61h182.06L255.6 170z"/></clipPath><style>.cls-7{fill:none}.cls-13,.cls-6,.cls-9{fill-rule:evenodd}.cls-11,.cls-13,.cls-6{fill:#fff}.cls-11,.cls-13,.cls-7{stroke:#333;stroke-width:1.5px}.cls-9{fill:#e0e0e0}</style></defs><path style="fill:#f1f1f1" d="M-4.5-5h330v173.09h-330z"/><g style="opacity:.04"><path id="_-Color" data-name="🎨-Color" d="M246 10v44.12h3.74v47h27.48V55.56h28.38v32.63l5.4 4.74v75.16H10.09L9.9 89.52V16.73H40v11.56h13.92l.36 32.2h11.13l-.36-38.62h32l.6 45.52h7.61l.41-30.51h44.53v11.46l9.47.28v-16.4l44.53-17.41v70.6l7 6.08V10ZM41.56 104.42h-5.84v5.93h5.84Zm200 .88h-5.84v5.93h5.84Zm-66.36-6.81h-5.84v5.93h5.84Zm0-10.64h-5.84v5.93h5.84Zm119.87 5.08h-5.84v5.93h5.84Zm-53.51-7.54h-5.84v5.93h5.84Zm-200-9h-5.84v5.93h5.84Zm83-2.4h-5.86v5.93h5.84Zm170.5-3.19h-5.84v5.93h5.84ZM193.61 56.68h-5.84v5.93h5.84Zm34.28-17.8h-5.84v5.93h5.84Zm0-18.21h-5.84v5.93h5.84Z" style="fill-rule:evenodd"/></g><g style="clip-path:url(#clip-path)"><g id="_01-Stickers_Shipping_Truck_01_Large" data-name="01-Stickers/Shipping/Truck/01/Large"><g id="CAMION-_-01-_-320x160" data-name="CAMION-/-01-/-320x160"><g id="camion-ventana"><path class="cls-6" d="M242.91 86.18a14.8 14.8 0 0 0-13.34-8.43h-31.83v58.09h52.15v-26.15q-3.54-12.28-5.3-18.44Z"/><path class="cls-7" d="M242.91 86.18a14.8 14.8 0 0 0-13.34-8.43h-31.83v58.09h52.15v-26.15q-3.54-12.28-5.3-18.44Z"/><path class="cls-7" d="M243.76 119.86h6.11v7.64h-6.11z"/><path d="M205.13 115.67v.43c0 .51.58.91 1.3.9h5.06c.73 0 1.33-.42 1.34-.93v-.43" style="stroke-width:1.5px;stroke:#333;fill:none"/></g><g id="caja"><path class="cls-6" d="M83.13 112.04V63.59h114.58v72.25H83.13v-23.8z"/><path id="_-Shadows" data-name="🌗-Shadows" class="cls-9" d="M156.74 50.28v15.06h40.31v7.27h-40.31v22.07l-9.28-8.93-7.12 6.52-6.75-6.5-9.43 8.79v-22H84v-7.22h40.15V50.28Z"/><path class="cls-7" d="M83.13 112.04V63.59h114.58v72.25H83.13v-23.8z"/><rect x="76.71" y="43" width="127.43" height="21.72" rx="1.04" style="fill:#fff"/><rect class="cls-11" x="76.71" y="43" width="127.43" height="21.72" rx="1.04"/></g><path id="_-Color-2" data-name="🎨-Color" d="M229.77 84a6.31 6.31 0 0 1 3.82 1.29 6.39 6.39 0 0 1 2.3 3.34l5.1 17.72h-35.36V84Zm-74.62-39.44v39.18l-7.69-7.4-7.12 6.52-6.76-6.52-7.89 7.36V44.56Z" style="fill:#ff52a5;stroke:#fff;stroke-width:3px;fill-rule:evenodd"/><path id="cinta-caja" class="cls-7" d="M156.74 43h-32.58v44.28l9.43-8.79 6.75 6.51 7.12-6.52 9.28 8.93V43z"/><path id="camion-ventana-2" data-name="camion-ventana" class="cls-7" d="M204.08 82.43h25.69a8 8 0 0 1 7.62 5.76l5.67 19.71h-39Z"/><g id="ruedas"><rect class="cls-11" x="78.11" y="135.84" width="176.16" height="11.1" rx="1.04"/><path id="_-Shadows-2" data-name="🌗-Shadows" class="cls-9" d="M78.92 146.36h174.54v-4.97H78.92v4.97z"/><path class="cls-13" d="M222.4 128c-10.77 0-19.49 9-19.49 20s8.72 20.05 19.49 20.05 19.5-9 19.5-20.05-8.73-20-19.5-20Zm-108.87 0c-10.77 0-19.5 9-19.5 20s8.73 20.05 19.5 20.05S133 159.12 133 148s-8.71-20-19.47-20Z"/><path class="cls-13" d="M222.4 136.82A11.23 11.23 0 1 1 211.18 148a11.22 11.22 0 0 1 11.22-11.18Zm-108.87 0A11.23 11.23 0 1 1 102.3 148a11.22 11.22 0 0 1 11.23-11.18Z"/></g></g></g></g><path class="cls-7" d="M0 168.09h321"/></svg>