<svg id="Capa_1" data-name="Capa 1" xmlns="http://www.w3.org/2000/svg" viewBox="0 0 321 170"><defs><style>.cls-10,.cls-4,.cls-5,.cls-8{fill-rule:evenodd}.cls-10,.cls-5{fill:#fff}.cls-7{fill:none}.cls-10,.cls-7{stroke:#333;stroke-width:1.5px}.cls-8{fill:#e0e0e0}</style></defs><path style="fill:#f1f1f1" d="M-4.5-5h330v173.09h-330z"/><path id="_-Color" data-name="🎨-Color" d="M112.84 9.72a8 8 0 0 1 8 8V70a8 8 0 0 1-8 7.95h-10.22v20.73L67.93 78H18a8 8 0 0 1-8-8V17.68a8 8 0 0 1 8-8Z" style="opacity:.04;fill-rule:evenodd"/><g style="opacity:.04"><path id="Combined-Shape" class="cls-4" d="m241.62 84.43.08.11c3.6 4.68 10 7.72 17.25 7.72h.36c7-.1 13.28-3.08 16.83-7.66l.12-.16.12.16c3.62 4.65 10 7.66 17.2 7.66a24.93 24.93 0 0 0 5.92-.7v76.53h-13.8v-64.4a2 2 0 0 0-1.82-2h-40.52a2 2 0 0 0-2 1.82v64.55h-92.54V91.49a24.91 24.91 0 0 0 6.18.77h.36c7.06-.1 13.34-3.12 16.88-7.72l.08-.11.08.11c3.6 4.68 10 7.72 17.25 7.72h.35c7.06-.1 13.34-3.12 16.88-7.72l.08-.11.08.11c3.6 4.68 10 7.72 17.25 7.72h.36c7.06-.1 13.34-3.12 16.88-7.72Zm21.93 43.72c3.29 0 5.95 3 5.95 6.76s-2.66 6.77-5.95 6.77-6-3-6-6.77 2.71-6.76 6-6.76Zm-53.07-13.46h-32.8a2 2 0 0 0-2 1.82v26.15a2 2 0 0 0 1.82 2h32.95a2 2 0 0 0 2-1.83v-26.17a2 2 0 0 0-1.97-1.97Z"/><path class="cls-4" d="m137.51 67 .11-.14c1.62-2 17.08-23.17 17.88-24.18a6.93 6.93 0 0 1 5.44-2.68h128.42a6.45 6.45 0 0 1 5.36 3q17.08 23.64 16 24c-1.04.3-173.62.53-173.21 0Z"/><path id="Combined-Shape-2" data-name="Combined-Shape" class="cls-4" d="M310.9 70.21v5.66c0 7.42-7.76 13.44-17.32 13.44-9.39 0-17-5.79-17.32-13-.29 7.22-7.93 13-17.31 13-9.57 0-17.33-6-17.33-13.44 0 7.42-7.76 13.44-17.32 13.44S207 83.29 207 75.87c0 7.42-7.76 13.44-17.32 13.44s-17.33-6-17.33-13.44c0 7.42-7.76 13.44-17.32 13.44s-17.33-6-17.33-13.44v-5.66h173.2Z"/></g><g id="_01-Stickers_Hands_01_Large" data-name="01-Stickers/Hands/01/Large"><g id="Group"><path id="Fill-28-Copy-2" class="cls-5" d="M128.83 102.66s-2.11-30.43-.29-34.06c1-2 5.22-13.85 8-24.4 2.2-8.18 2.9-15.86 4.94-16.09a4.42 4.42 0 0 1 3.89 1.9v26.66c-.46 2-.78 3.36-.78 3.36l.78.6.1 46.78c0 3.62 3.53 6.66 7.15 6.66q36.42-2.05 34.48 0c-.92 1-6.36 6.69-7.18 7.41-2.1 1.84-5.91 4-8.88 6.24a45.48 45.48 0 0 0-5 4.3s-2.05 7.24-3.58 15c-.92 4.73-2.83 13.32-3.87 21l-53-.42c10.27-27.15 17.67-46.82 20.35-54.27s2.89-10.67 2.89-10.67Z"/><path id="Fill-5-Copy-2" class="cls-5" d="M197.68 34.55s9.78-8.56 13.37-8.42 4.83 5.39 2.65 9.08-14.56 11.73-14.56 11.73q-1.45-12.39-1.46-12.39Z"/><path id="Fill-7-Copy-2" d="M195 35s2.42-1.31 5.27-2.61v14.42c-1.76 1.21-3 2-3 2l-5.37 2.25-2.59-5.36-.9-5.7Z" style="fill:#dedede;fill-rule:evenodd"/><path id="Stroke-9-Copy-2" class="cls-7" d="M197.68 33.82s8-7 12.53-7.64 6.63 5 4 8.29-15.09 12.35-15.09 12.35l-5.87 2.58-2.83-6.16-.95-6.54Z"/><path id="Fill-29-Copy-2" class="cls-8" d="M146.09 114.93v-6.57a6.71 6.71 0 0 0 6.86 6.55h32.68c-2 2-4.18 4.11-5.82 5.48-.4.33-.86.7-1.37 1.09H153a6.71 6.71 0 0 1-6.86-6.55"/><g id="celu1"><path class="cls-5" d="M197.67 90.28v-63a5.46 5.46 0 0 0-5.52-5.41h-40.46a5.46 5.46 0 0 0-5.51 5.41v81.28a6.45 6.45 0 0 0 6.51 6.39h38.46a6.46 6.46 0 0 0 6.52-6.39V90.28Z"/><path id="_-Color-2" data-name="🎨-Color" style="fill:#ff52a5;stroke:#fff;stroke-width:3px" d="M147.21 33.15h49.34v69.14h-49.34z"/><path class="cls-8" d="M190.86 111.93h-38.21a6.34 6.34 0 0 1-6.47-6.19v3a6.34 6.34 0 0 0 6.47 6.2h38.21a6.34 6.34 0 0 0 6.48-6.2v-3a6.34 6.34 0 0 1-6.48 6.19"/><path class="cls-7" d="M197.62 90.28v-63a5.46 5.46 0 0 0-5.51-5.41h-40.46a5.46 5.46 0 0 0-5.52 5.41v81.28a6.46 6.46 0 0 0 6.52 6.39h38.46a6.45 6.45 0 0 0 6.51-6.39V90.28Zm-51.44 13.09h51.16m0-71.29h-51.16m23.57-4.91h7.59"/><path id="celu1-copy" class="cls-7" d="M166.71 27.17h1.37"/><path class="cls-7" d="M167.96 108.65h6.6"/></g><path id="Shape-Copy" class="cls-7" d="m105.62 167.83 20.3-54.28a32.56 32.56 0 0 0 3.2-13.13q0-5.1-1-14.89a97.93 97.93 0 0 1-.21-10.6 32.32 32.32 0 0 1 2.44-11c1.76-4.87 4.31-12.61 6.23-19.78 2.2-8.18 2.9-15.86 4.94-16.09a4.42 4.42 0 0 1 3.89 1.9v26.7c-.46 2-.78 3.37-.78 3.37l.78.6"/><path id="Fill-34-Copy-2" class="cls-5" d="M145.11 61.53s3.84-16 4.12-20.65-2.47-13.31-7.42-12.77c-2.16.24-2.08 5.84-4.4 14.4l1.54 19"/><path id="Stroke-35-Copy-2" class="cls-7" d="M145.11 60.91s3.84-16 4.12-20.65-2.47-13.26-7.42-12.77c-2.16.24-2.9 8.28-5.22 16.85"/><path id="Path-Copy" class="cls-7" d="M186.13 114.78c-1.35 2.51-4.31 7.17-13.42 11.32-1.12.51-5.76 3.77-7 7.22-1.7 4.73-3.69 12.91-8 34.51"/><path id="Rectangle" class="cls-10" d="m194.09 60.31 5.54-4.16a4.74 4.74 0 0 1 6.63.94 4.56 4.56 0 0 1 .57 1 7.32 7.32 0 0 1-2.62 8.91l-4.88 3.3a4.9 4.9 0 0 1-6.81-1.3c-.1-.15-.2-.32-.29-.49a6.51 6.51 0 0 1 1.86-8.2Z"/><path id="Rectangle-Copy" class="cls-10" d="m193 75.4 6.13-4.35a5 5 0 0 1 7 1.19 4.67 4.67 0 0 1 .48.84 7 7 0 0 1-2.61 8.83l-5.46 3.49a5.24 5.24 0 0 1-7.23-1.59c-.06-.1-.12-.19-.17-.29A6.24 6.24 0 0 1 193 75.4Z"/><path id="Rectangle-Copy-2" class="cls-10" d="m194.2 88.31 3.8-2.74a5 5 0 0 1 7 1.11 4.81 4.81 0 0 1 .49.82 7 7 0 0 1-2.54 8.81l-3.15 2a5.21 5.21 0 0 1-7.2-1.56 2.38 2.38 0 0 1-.18-.3 6.32 6.32 0 0 1 1.78-8.14Z"/></g></g><path class="cls-7" d="M0 168.09h321"/></svg>