<svg id="Capa_1" data-name="Capa 1" xmlns="http://www.w3.org/2000/svg" viewBox="0 0 321 170"><defs><style>.cls-2{opacity:.04}.cls-3,.cls-7{fill-rule:evenodd}.cls-4,.cls-5,.cls-7{fill:none;stroke:#333;stroke-width:1.5px}.cls-5,.cls-7{fill:#fff}</style></defs><path style="fill:#f1f1f1" d="M-4.5-11.91h330v180h-330z"/><g id="_03-Contexts_Objects_Box" data-name="03-Contexts/Objects/Box" class="cls-2"><path id="_-Color" data-name="🎨-Color" class="cls-3" d="m127.12 57 56.49.09v111H19.69V57h55.5v38l14.09-10.9 12.45 8.62 11.54-9.23L127.12 95Zm-62.66 76.54H40.05v16.16h24.41Zm60.29-108.32v64.05l-11.83-9.41-11.82 9.41-11.83-9.41-11.83 9.41v-64Zm-49.56-.57v30H12.31A2.31 2.31 0 0 1 10 52.34V27a2.3 2.3 0 0 1 2.31-2.3Zm116 0a2.3 2.3 0 0 1 2.31 2.3v25.39a2.31 2.31 0 0 1-2.31 2.31h-64v-30h64Z"/></g><g id="COLOR" class="cls-2"><path id="_-Color-2" data-name="🎨-Color" class="cls-3" d="M228.05 151.28H311v4.24a12.49 12.49 0 0 1-12.41 12.57h-58.13a12.48 12.48 0 0 1-12.41-12.57v-4.24ZM311 29.06V149h-82.95V29ZM298.59 10A12.49 12.49 0 0 1 311 22.57v4.24h-82.95v-4.24A12.49 12.49 0 0 1 240.46 10Zm-20.1 7.29h-18.06a1.12 1.12 0 0 0 0 2.23h18.19a1.12 1.12 0 0 0-.13-2.23Z"/></g><path class="cls-4" d="M0 168.09h321"/><g id="_01-Stickers_Devices_Monitor_Large" data-name="01-Stickers/Devices/Monitor/Large"><g id="monitor"><path class="cls-5" d="M154.71 146.76h7.74v15.47h-7.74z"/><path id="_-Color-3" data-name="🎨-Color" d="M242.21 53.9v88.27a4.44 4.44 0 0 1-4.45 4.45H83.21a4.44 4.44 0 0 1-4.45-4.45V53.9Z" style="stroke-width:2.78px;stroke:#fff;fill:#fff;fill-rule:evenodd"/><path id="laptop" class="cls-4" d="M77.28 52.42h166.41v89.75a5.92 5.92 0 0 1-5.93 5.93H83.21a5.92 5.92 0 0 1-5.93-5.93V52.42Z"/><path id="laptop-2" data-name="laptop" class="cls-7" d="M83.21 43h154.58a5.92 5.92 0 0 1 5.93 5.93v3.8H77.28v-3.8A5.92 5.92 0 0 1 83.21 43Z"/><circle cx="160.11" cy="47.86" r="1.48" style="fill:#333"/><path class="cls-7" d="M184.28 156.37h-51.41a11.73 11.73 0 0 0-11.73 11.72H196a11.73 11.73 0 0 0-11.72-11.72Z"/></g></g><g id="_01-Stickers_Complements_07-Navigation_Cart" data-name="01-Stickers/Complements/07-Navigation/Cart"><path id="_-Color-4" data-name="🎨-Color" d="m182.32 83.06-3.94 22.77-35.35.36-4.56-23.13Z" style="fill:#ff52a5;stroke-width:3px;stroke:#fff;fill-rule:evenodd"/><path id="Rectangle" class="cls-4" d="M136.82 81.71h45.5a1.8 1.8 0 0 1 1.8 1.8 2.07 2.07 0 0 1 0 .35l-4.39 22.23a1.79 1.79 0 0 1-1.76 1.45h-36Z"/><path id="Path" class="cls-4" d="m124.76 70.19 3.29-.16a7.21 7.21 0 0 1 7.4 5.76l7.18 35.21a3.59 3.59 0 0 0 3.52 2.88h32.16"/><circle id="Oval" class="cls-5" cx="171.16" cy="117.98" r="4.14"/><circle id="Oval-Copy" class="cls-5" cx="151.4" cy="117.98" r="4.14"/></g></svg>