<?xml version="1.0" encoding="iso-8859-1"?>
<!-- Generator: Adobe Illustrator 19.0.0, SVG Export Plug-In . SVG Version: 6.00 Build 0)  -->
<svg xmlns="http://www.w3.org/2000/svg" xmlns:xlink="http://www.w3.org/1999/xlink" version="1.1" id="Capa_1" x="0px" y="0px" viewBox="0 0 512 512" style="enable-background:new 0 0 512 512;" xml:space="preserve" width="512px" height="512px">
<g>
	<g>
		<path d="M487.288,175.84h-61.623c-5.534,0-10.02,4.486-10.02,10.02v61.623c0,5.534,4.486,10.02,10.02,10.02h20.792v2.712    c0,28.312-23.034,51.347-51.392,51.347l-2.803,0.013c-8.281-23.308-30.548-40.045-56.659-40.045h-50.098v-36.322h40.417    c26.088,0,47.312-21.224,47.312-47.312v-65.67c0-33.416-24.344-60.602-54.266-60.602h-7.101v-5.385    C311.867,25.228,286.639,0,255.63,0s-56.237,25.228-56.237,56.237v5.386h-7.101c-29.922,0-54.266,27.186-54.266,60.602v65.67    c0,26.088,21.224,47.312,47.312,47.312h40.049v36.323H175.29c-26.11,0-48.375,16.736-56.658,40.04l-1.69-0.009    c-0.017,0-0.033,0-0.05,0c-28.312,0-51.347-23.034-51.347-51.347v-2.711h20.792c5.534,0,10.02-4.486,10.02-10.02V185.86    c0-5.534-4.486-10.02-10.02-10.02H24.713c-5.534,0-10.02,4.486-10.02,10.02v61.623c0,5.534,4.486,10.02,10.02,10.02h20.792v2.712    c0,38.787,31.099,70.425,69.669,71.342c0,0.03-0.002,0.06-0.002,0.09c0,33.149,26.969,60.117,60.117,60.117h50.098v44.791    c-24.678,11.102-41.914,35.904-41.914,64.672c0,5.94,4.832,10.772,10.772,10.772h122.768c5.941,0,10.773-4.832,10.773-10.772    c0-28.911-17.406-53.82-42.282-64.839v-44.624h50.098c33.149,0,60.117-26.969,60.117-60.117c0-0.021-0.002-0.041-0.002-0.062    c39.082-0.33,70.777-32.212,70.777-71.37v-2.712h20.793c5.534,0,10.02-4.486,10.02-10.02V185.86    C497.308,180.326,492.822,175.84,487.288,175.84z M34.732,237.464V195.88h41.584v41.584H34.732z M255.63,20.039    c19.959,0,36.198,16.239,36.198,36.198v36.198h-72.395V56.237h-0.001C219.431,36.278,235.67,20.039,255.63,20.039z     M185.337,215.169c-15.038,0-27.273-12.235-27.273-27.273v-65.67c0-22.367,15.354-40.563,34.227-40.563h7.101v20.793    c0,5.534,4.486,10.02,10.02,10.02h92.435c5.534,0,10.02-4.486,10.02-10.02V81.662h7.101c18.873,0,34.227,18.197,34.227,40.563    v65.67c0,15.038-12.235,27.273-27.273,27.273H185.337z M265.465,235.208v36.322h-20.039v-36.322H265.465z M306.901,491.961    H204.358c3.306-17.881,16.001-32.503,32.759-38.565c0.975-0.168,1.899-0.476,2.755-0.904c4.595-1.369,9.456-2.116,14.49-2.116    h2.533c4.723,0,9.297,0.65,13.64,1.862c1.172,0.667,2.488,1.111,3.895,1.258C291.046,459.62,303.613,474.182,306.901,491.961z     M245.427,430.921v-39.156h20.039v39.108h-0.001c-2.811-0.341-5.667-0.536-8.569-0.536h-2.533    C251.334,430.338,248.357,430.55,245.427,430.921z M335.602,371.726H175.289c-22.099,0-40.078-17.979-40.078-40.078h32.654    c5.534,0,10.02-4.486,10.02-10.02s-4.486-10.02-10.02-10.02h-27.262c6.941-11.967,19.885-20.039,34.687-20.039h160.313    c14.802,0,27.746,8.072,34.687,20.039H248.021c-5.534,0-10.02,4.486-10.02,10.02s4.486,10.02,10.02,10.02H375.68    C375.68,353.747,357.701,371.726,335.602,371.726z M477.269,237.464h-41.584V195.88h41.584V237.464z" fill="#FFFFFF"/>
	</g>
</g>
<g>
	<g>
		<path d="M217.762,319.674c-0.12-0.641-0.321-1.273-0.571-1.874c-0.25-0.611-0.561-1.192-0.922-1.733    c-0.361-0.551-0.782-1.062-1.242-1.523c-0.461-0.461-0.972-0.882-1.523-1.242c-0.541-0.361-1.122-0.671-1.733-0.922    c-0.601-0.25-1.232-0.451-1.874-0.571c-1.292-0.26-2.615-0.26-3.908,0c-0.641,0.12-1.273,0.321-1.874,0.571    c-0.611,0.25-1.192,0.561-1.733,0.922c-0.551,0.361-1.062,0.781-1.523,1.242c-0.461,0.461-0.882,0.972-1.252,1.523    c-0.361,0.541-0.661,1.122-0.912,1.733c-0.25,0.601-0.451,1.232-0.571,1.874c-0.13,0.641-0.2,1.302-0.2,1.954    c0,0.651,0.07,1.313,0.2,1.954c0.12,0.641,0.321,1.272,0.571,1.884c0.25,0.601,0.561,1.182,0.912,1.723    c0.371,0.551,0.792,1.062,1.252,1.523c1.864,1.864,4.449,2.936,7.084,2.936c2.635,0,5.22-1.072,7.084-2.936    c0.461-0.461,0.882-0.972,1.242-1.523c0.361-0.541,0.671-1.122,0.922-1.723c0.25-0.611,0.451-1.242,0.571-1.884    c0.13-0.641,0.2-1.303,0.2-1.954C217.962,320.977,217.892,320.316,217.762,319.674z" fill="#FFFFFF"/>
	</g>
</g>
<g>
</g>
<g>
</g>
<g>
</g>
<g>
</g>
<g>
</g>
<g>
</g>
<g>
</g>
<g>
</g>
<g>
</g>
<g>
</g>
<g>
</g>
<g>
</g>
<g>
</g>
<g>
</g>
<g>
</g>
</svg>
