<?xml version="1.0" encoding="iso-8859-1"?>
<!-- Generator: Adobe Illustrator 19.0.0, SVG Export Plug-In . SVG Version: 6.00 Build 0)  -->
<svg xmlns="http://www.w3.org/2000/svg" xmlns:xlink="http://www.w3.org/1999/xlink" version="1.1" id="Capa_1" x="0px" y="0px" viewBox="0 0 511.999 511.999" style="enable-background:new 0 0 511.999 511.999;" xml:space="preserve" width="512px" height="512px">
<g>
	<g>
		<path d="M466.009,428.38H326.212v-46.999c35.729-13.415,61.225-47.924,61.225-88.282v-68.999c0-0.001,0-129.84,0-129.84    C387.437,42.286,345.151,0,293.174,0h-76.388c-7.745,0-15.452,0.954-22.904,2.833c-42.015,10.583-71.36,48.179-71.36,91.429V293.1    c0,40.357,25.497,74.867,61.225,88.282v46.999H45.991c-25.32,0-45.919,18.527-45.919,41.299v32.313    c0,5.526,4.48,10.007,10.007,10.007H501.92c5.527,0,10.007-4.481,10.007-10.007v-32.313    C511.927,446.907,491.328,428.38,466.009,428.38z M142.535,187.149c16.362-7.962,31.209-18.554,44.216-31.55    c8.525-8.531,16.036-17.895,22.452-27.971c9.523,14.917,21.5,28.371,35.255,39.514c4.294,3.478,10.595,2.818,14.074-1.477    c3.478-4.295,2.817-10.596-1.477-14.074c-16.279-13.187-29.72-30.053-38.871-48.775c-1.679-3.434-5.167-5.612-8.989-5.612    c0,0,0,0-0.001,0c-3.821,0-7.31,2.177-8.989,5.61c-6.997,14.306-16.286,27.306-27.604,38.634    c-9.053,9.047-19.125,16.759-30.064,23.052V94.26c-0.001-34.065,23.123-63.682,56.237-72.022    c5.856-1.478,11.916-2.226,18.012-2.226h76.388c40.942,0,74.249,33.308,74.249,74.248v87.698    c-11.937,1.73-24.141,1.98-36.034,0.688c-5.494-0.603-10.432,3.373-11.028,8.867c-0.597,5.495,3.373,10.432,8.868,11.028    c12.604,1.369,25.532,1.253,38.195-0.358v17.77l-51.474,51.474l-23.282-23.281c-1.876-1.876-4.421-2.931-7.076-2.931h-61.735    c-2.654,0-5.199,1.055-7.076,2.931l-23.027,23.026l-51.218-51.218V187.149z M301.798,285.579l-20.351,20.351h-52.936    l-20.606-20.606l20.096-20.095h53.446L301.798,285.579z M142.536,293.099v-44.842l74.756,74.755    c1.876,1.876,4.422,2.931,7.076,2.931h61.225c2.654,0,5.199-1.055,7.076-2.931l74.756-74.755v44.842    c0,33.987-22.963,62.693-54.182,71.472c-0.005,0.002-0.011,0.003-0.016,0.005c-6.383,1.793-13.103,2.773-20.051,2.773h-76.388    c-6.948,0-13.668-0.98-20.051-2.773c-0.005-0.002-0.011-0.003-0.016-0.005C165.499,355.793,142.536,327.087,142.536,293.099z     M306.198,386.458v41.922H203.761v-41.922c4.259,0.591,8.606,0.904,13.025,0.904h76.388    C297.592,387.362,301.939,387.048,306.198,386.458z M491.915,491.986h-0.001H20.086v-22.307c0-11.539,11.863-21.286,25.906-21.286    h420.017c14.042,0,25.906,9.747,25.906,21.286V491.986z" fill="#FFFFFF"/>
	</g>
</g>
<g>
	<g>
		<path d="M295.966,178.97c-0.13-0.64-0.32-1.271-0.57-1.871c-0.25-0.6-0.56-1.181-0.921-1.73c-0.36-0.54-0.781-1.062-1.241-1.522    c-0.47-0.46-0.981-0.881-1.521-1.24c-0.55-0.36-1.131-0.67-1.731-0.921c-0.6-0.25-1.231-0.44-1.871-0.57    c-3.252-0.65-6.704,0.41-9.036,2.731c-0.46,0.46-0.881,0.981-1.241,1.522c-0.36,0.55-0.67,1.131-0.921,1.73    c-0.25,0.601-0.44,1.231-0.57,1.871c-0.13,0.65-0.2,1.301-0.2,1.961c0,0.65,0.07,1.301,0.2,1.951c0.13,0.638,0.32,1.259,0.57,1.87    c0.25,0.6,0.56,1.181,0.921,1.721c0.36,0.55,0.78,1.062,1.241,1.522c1.861,1.871,4.443,2.932,7.075,2.932    c0.66,0,1.311-0.06,1.961-0.19c0.64-0.13,1.271-0.319,1.871-0.569c0.6-0.25,1.181-0.561,1.731-0.921    c0.54-0.37,1.051-0.781,1.521-1.251c0.46-0.46,0.881-0.972,1.241-1.522c0.36-0.54,0.67-1.121,0.921-1.721    c0.25-0.61,0.44-1.231,0.57-1.871c0.13-0.65,0.19-1.301,0.19-1.951C296.156,180.271,296.096,179.62,295.966,178.97z" fill="#FFFFFF"/>
	</g>
</g>
<g>
</g>
<g>
</g>
<g>
</g>
<g>
</g>
<g>
</g>
<g>
</g>
<g>
</g>
<g>
</g>
<g>
</g>
<g>
</g>
<g>
</g>
<g>
</g>
<g>
</g>
<g>
</g>
<g>
</g>
</svg>
